<svg id="Ebene_1" data-name="Ebene 1" xmlns="http://www.w3.org/2000/svg" viewBox="0 0 22 25">
	<defs>
		<style>.cls-1{fill:#fff;}.cls-2{fill:#444;}</style>
	</defs>
	<path class="cls-1" d="M10.45,22.9a1.23,1.23,0,0,1-.27,0A1.58,1.58,0,0,1,9,21.32v-.05L9,21.05c.05-.17.11-.39.18-.6l.53-1.6c.39-1.19.78-2.37,1.14-3.56a5,5,0,0,0,.18-1.14l0-.32q.13-1.29.24-2.58a5.61,5.61,0,0,0,0-.71v-.13l-1.93-.27L8.12,10,6.68,9.75a1.51,1.51,0,0,1-1.27-1.7A1.49,1.49,0,0,1,7.11,6.8l.75.1c1.27.17,2.54.34,3.81.54a12.72,12.72,0,0,0,2.84.15c.56,0,1.13-.13,1.69-.21l.71-.11,1.44-.2,2-.28A1.48,1.48,0,0,1,21.5,9.37a1.49,1.49,0,0,1-.85.39l-4.59.65h0c0,.37,0,.86.05,1.35s.07.83.12,1.24.1,1,.14,1.51a8.39,8.39,0,0,0,.53,2.17l1.21,3.65c.06.21.13.41.2.61a1.49,1.49,0,0,1-1,1.86,1.44,1.44,0,0,1-1.11-.08,1.4,1.4,0,0,1-.74-.84c-.23-.67-.45-1.33-.66-2l-1.14-3.45c-.25.81-.51,1.61-.77,2.42l-.5,1.52c-.17.52-.34,1.05-.52,1.56A1.48,1.48,0,0,1,10.45,22.9Zm-.78-1.54a.88.88,0,0,0,.62.84.81.81,0,0,0,.94-.49c.18-.51.35-1,.52-1.55l.49-1.52c.3-.9.59-1.81.89-2.71a.7.7,0,0,1,.46-.44c.17-.05.48,0,.64.44l1.23,3.74c.22.66.43,1.33.66,2a.78.78,0,0,0,.39.45.76.76,0,0,0,.59,0,.79.79,0,0,0,.54-1c-.06-.2-.13-.4-.19-.6l-1.2-3.62a9.56,9.56,0,0,1-.58-2.37c0-.5-.09-1-.14-1.49l-.12-1.25c0-.52-.05-1-.05-1.41s.2-.63.6-.68l4.6-.65A.92.92,0,0,0,21,8.87a.79.79,0,0,0,.2-.92.82.82,0,0,0-.79-.48l-2,.28L17,8l-.7.1c-.57.09-1.16.18-1.75.22a12.89,12.89,0,0,1-3-.15C10.3,7.92,9,7.75,7.77,7.58L7,7.48a.82.82,0,0,0-.93.66.83.83,0,0,0,.7.93l1.43.21,1.29.18,2,.27a.56.56,0,0,1,.53.58v.21c0,.26,0,.52,0,.78q-.1,1.3-.24,2.61l0,.31a6.24,6.24,0,0,1-.21,1.27c-.37,1.2-.76,2.38-1.15,3.57l-.52,1.6c-.07.21-.13.41-.17.58Z"/>
	<path class="cls-1" d="M13.7,7.1a2.5,2.5,0,0,1-1.77-4.27,2.53,2.53,0,0,1,1.78-.73h0A2.52,2.52,0,0,1,16.2,4.59,2.53,2.53,0,0,1,13.7,7.1Zm0-4.32a1.8,1.8,0,0,0-1.29,3.09,1.79,1.79,0,0,0,1.28.54h0a1.82,1.82,0,0,0,1.81-1.82h0a1.84,1.84,0,0,0-1.79-1.81Z"/>
	<polygon class="cls-1" points="8.93 11.33 8.93 19.16 8.57 20.26 0 20.26 0 11.33 8.93 11.33"/>
	<path class="cls-2" d="M5.63,18.68H3.39a.37.37,0,0,1-.26-.1.39.39,0,0,1,0-.52A.38.38,0,0,1,3.39,18h.75V15.22H3.4a.36.36,0,0,1-.26-.11.39.39,0,0,1,0-.52.36.36,0,0,1,.26-.11H4.52a.36.36,0,0,1,.26.11.35.35,0,0,1,.1.26V18h.74a.38.38,0,0,1,.37.37.33.33,0,0,1-.11.26A.35.35,0,0,1,5.63,18.68Zm-1.5-6.1h.39a.35.35,0,0,1,.26.1.37.37,0,0,1,.1.26v.32a.35.35,0,0,1-.1.26.33.33,0,0,1-.26.11H4.13a.37.37,0,0,1-.27-.11.36.36,0,0,1-.1-.25v-.33a.34.34,0,0,1,.11-.26A.33.33,0,0,1,4.13,12.58Z"/>
</svg>