<?xml version="1.0" encoding="UTF-8" standalone="no"?>
<!DOCTYPE svg PUBLIC "-//W3C//DTD SVG 20010904//EN"
              "http://www.w3.org/TR/2001/REC-SVG-20010904/DTD/svg10.dtd">

<svg xmlns="http://www.w3.org/2000/svg"
     width="6.35145mm" height="5.29287mm"
     viewBox="0 0 18 15">
  <path id="LinkedOpenData"
        fill="black" stroke="black" stroke-width="1"
        d="M 15.54,9.71
           C 15.43,9.66 15.32,9.62 15.20,9.59
             15.20,9.59 15.28,9.58 15.28,9.58
             15.28,9.58 14.57,9.33 14.51,7.48
             14.45,5.63 15.19,5.32 15.19,5.32
             15.19,5.32 15.08,5.32 15.08,5.32
             15.64,5.09 16.12,4.72 16.44,4.24
             17.27,2.98 16.68,1.42 15.12,0.76
             13.56,0.09 11.62,0.57 10.79,1.82
             10.45,2.34 10.35,2.91 10.46,3.44
             10.46,3.44 10.42,3.39 10.42,3.39
             10.42,3.39 10.61,4.07 8.66,5.04
             6.71,6.02 5.83,5.53 5.83,5.53
             5.83,5.53 5.89,5.60 5.89,5.60
             5.83,5.57 5.78,5.54 5.72,5.52
             4.16,4.85 2.22,5.33 1.39,6.58
             0.56,7.84 1.15,9.40 2.72,10.07
             3.88,10.56 5.25,10.43 6.22,9.80
             6.22,9.80 6.20,9.83 6.20,9.83
             6.20,9.83 6.91,9.36 8.95,10.25
             10.57,10.95 10.81,11.63 10.84,11.89
             10.80,12.84 11.42,13.78 12.53,14.26
             14.09,14.93 16.03,14.45 16.86,13.19
             17.69,11.93 17.10,10.37 15.54,9.71 Z
           M 11.93,10.05
           C 11.67,10.12 10.93,10.20 9.38,9.53
             7.69,8.80 7.44,8.19 7.40,8.01
             7.43,7.79 7.41,7.57 7.37,7.35
             7.37,7.35 7.38,7.36 7.38,7.36
             7.38,7.36 7.24,6.77 9.17,5.81
             10.89,4.95 11.68,5.12 11.82,5.16
             11.92,5.21 12.01,5.26 12.12,5.31
             12.31,5.39 12.51,5.45 12.71,5.50
             12.95,5.68 13.39,6.20 13.43,7.56
             13.48,8.93 12.98,9.46 12.71,9.64
             12.43,9.74 12.16,9.88 11.93,10.05 Z" />
</svg>
